<?xml version="1.0" encoding="UTF-8" standalone="no"?>
<!DOCTYPE svg PUBLIC "-//W3C//DTD SVG 1.1//EN" "http://www.w3.org/Graphics/SVG/1.1/DTD/svg11.dtd">
<svg xmlns="http://www.w3.org/2000/svg" version="1.1" viewBox="0.00 0.00 612.00 480.00">
<g stroke-width="0.90" fill="none" stroke-linecap="butt">
<path stroke="#fbe4a0" vector-effect="non-scaling-stroke" d="
  M 318.78 391.59
  L 318.99 368.59"
/>
<path stroke="#9fa2a6" vector-effect="non-scaling-stroke" d="
  M 318.99 368.59
  Q 327.21 367.20 327.22 359.00
  Q 327.28 324.77 327.22 292.61
  Q 327.22 291.68 328.15 291.68
  L 343.57 291.68
  Q 344.21 291.68 344.21 292.32
  Q 344.19 300.18 344.39 301.48
  Q 345.36 307.58 351.36 308.61
  Q 357.34 309.63 360.26 304.26
  Q 361.65 301.70 361.32 293.77
  Q 361.28 292.86 361.27 292.46
  Q 361.24 291.69 362.01 291.69
  L 386.14 291.69
  Q 386.81 291.69 386.82 292.37
  Q 386.93 302.13 387.01 308.00
  Q 387.27 325.30 402.98 332.45
  Q 404.00 332.91 404.00 334.03
  L 404.00 350.51
  Q 404.00 351.15 403.37 351.25
  Q 402.16 351.43 399.29 351.42
  Q 393.74 351.42 391.55 352.51
  Q 386.92 354.82 386.93 361.20
  Q 386.96 392.73 386.97 393.18
  Q 387.02 402.54 396.30 402.57
  Q 428.16 402.69 478.76 402.58
  Q 486.00 402.57 488.10 398.14
  Q 489.41 395.37 489.32 387.04
  Q 489.31 386.30 489.31 385.92
  Q 489.27 381.49 489.26 367.15
  Q 489.26 358.17 488.49 356.47
  Q 486.22 351.45 476.96 351.43
  Q 473.97 351.42 472.62 351.23
  Q 472.21 351.17 472.21 350.76
  L 472.21 333.99
  Q 472.21 332.92 473.17 332.47
  Q 484.90 327.00 488.21 316.03
  Q 489.29 312.44 489.27 296.31
  Q 489.19 202.65 489.26 159.68
  Q 489.26 159.40 489.26 158.85
  Q 489.28 145.13 488.22 139.64
  Q 486.58 131.18 480.75 123.93
  Q 480.29 123.35 480.82 122.84
  Q 489.20 114.83 489.23 103.02
  Q 489.31 81.45 489.11 69.58
  Q 488.93 58.53 481.08 51.38
  Q 473.42 44.41 462.25 44.42
  Q 401.52 44.49 132.00 44.43
  Q 108.02 44.43 104.30 44.62
  Q 94.04 45.14 87.13 52.32
  Q 80.28 59.45 79.96 69.75
  Q 79.90 71.72 79.88 100.04
  Q 79.88 112.49 84.63 118.88
  Q 90.24 126.40 98.64 128.79
  Q 102.09 129.77 115.98 129.76
  Q 182.04 129.72 241.04 129.73
  Q 241.94 129.73 241.94 130.63
  L 241.94 222.83
  Q 241.94 223.64 241.13 223.64
  Q 105.29 223.64 103.54 223.59
  Q 93.90 223.34 90.49 224.84
  Q 79.62 229.61 79.92 243.31
  Q 79.97 245.25 79.83 269.16
  Q 79.78 277.18 81.34 281.16
  Q 85.45 291.72 98.75 291.72
  Q 180.76 291.72 241.13 291.69
  Q 241.93 291.69 241.93 292.49
  Q 241.90 408.67 241.95 427.49
  Q 241.98 438.85 249.58 446.32
  Q 257.14 453.75 268.51 453.77
  Q 295.75 453.80 299.75 453.83
  Q 311.29 453.91 318.95 446.92
  Q 326.69 439.85 327.17 428.49
  Q 327.32 424.89 327.21 413.23
  Q 327.13 406.24 331.13 403.60
  Q 332.74 402.53 339.10 402.58
  Q 346.73 402.63 358.15 402.62
  Q 363.36 402.61 365.18 401.70
  Q 368.78 399.90 369.58 395.94
  Q 370.38 392.00 367.87 388.69
  Q 365.58 385.64 359.25 385.61
  Q 338.19 385.53 334.24 385.62
  Q 326.07 385.82 318.78 391.59"
/>
<path stroke="#a38e4f" vector-effect="non-scaling-stroke" d="
  M 318.99 368.59
  Q 310.15 367.87 310.16 358.48
  Q 310.19 294.04 310.17 292.30
  Q 310.16 291.68 309.54 291.68
  L 259.54 291.68
  Q 258.94 291.68 258.94 292.28
  Q 259.00 342.59 258.95 426.50
  Q 258.95 432.47 262.14 434.83
  Q 264.86 436.84 271.00 436.78
  Q 281.61 436.68 300.74 436.70
  Q 306.70 436.71 308.96 432.60
  Q 310.21 430.32 310.18 423.18
  Q 310.18 422.24 309.98 413.00
  Q 309.70 399.83 318.78 391.59"
/>
<path stroke="#9fa2a6" vector-effect="non-scaling-stroke" d="
  M 318.69 223.59
  L 343.62 223.61
  Q 344.19 223.61 344.20 223.03
  Q 344.27 218.12 344.25 215.53
  Q 344.21 210.04 348.61 207.60
  Q 353.01 205.16 357.66 208.11
  Q 361.96 210.83 361.32 221.86
  Q 361.28 222.62 361.26 222.98
  Q 361.22 223.64 361.88 223.64
  L 386.08 223.64
  Q 386.58 223.64 386.66 223.14
  Q 387.08 220.41 386.96 213.78
  Q 386.73 201.74 388.95 196.65
  Q 395.07 182.57 411.97 180.93
  Q 412.50 180.88 412.50 180.34
  L 412.50 164.40
  Q 412.50 163.81 411.92 163.81
  Q 401.88 163.71 392.13 163.90
  Q 384.85 164.05 382.12 162.32
  Q 378.01 159.73 378.53 153.11"
/>
<path stroke="#767f8b" vector-effect="non-scaling-stroke" d="
  M 378.53 153.11
  Q 380.94 146.83 386.56 146.80
  Q 415.10 146.68 419.25 146.62
  Q 429.43 146.49 429.50 156.56
  Q 429.62 173.23 429.53 180.19
  Q 429.52 181.03 430.36 181.00
  Q 438.32 180.74 446.74 181.01
  Q 453.98 181.24 455.15 188.66"
/>
<path stroke="#8c929b" vector-effect="non-scaling-stroke" d="
  M 455.15 188.66
  Q 454.43 197.92 444.99 197.94
  Q 429.72 197.98 413.75 198.01
  Q 403.92 198.03 403.94 207.78
  Q 404.05 272.74 403.91 304.07
  Q 403.87 311.01 405.14 313.19
  Q 407.52 317.26 413.03 317.30
  Q 421.40 317.37 458.03 317.38
  Q 465.58 317.38 467.86 316.22
  Q 472.12 314.04 472.12 307.75
  Q 472.17 248.10 472.20 188.46"
/>
<path stroke="#767f8b" vector-effect="non-scaling-stroke" d="
  M 472.20 188.46
  Q 472.24 170.94 472.22 153.43
  Q 472.22 152.61 472.25 150.84
  Q 472.39 143.32 471.33 140.68
  Q 466.92 129.73 456.00 129.73
  Q 406.54 129.69 360.59 129.67
  Q 358.40 129.67 356.21 129.79"
/>
<path stroke="#9fa2a6" vector-effect="non-scaling-stroke" d="
  M 356.21 129.79
  L 328.14 129.68
  Q 327.25 129.67 327.25 130.57
  Q 327.26 162.40 327.26 193.88
  Q 327.27 199.97 325.90 202.36
  Q 323.80 206.04 318.66 206.57"
/>
<path stroke="#a38e4f" vector-effect="non-scaling-stroke" d="
  M 318.66 206.57
  Q 310.18 205.56 310.18 197.75
  Q 310.14 162.69 310.19 126.26
  Q 310.20 119.13 311.31 116.90
  Q 313.38 112.70 319.27 112.70
  Q 410.71 112.66 459.55 112.70
  Q 466.25 112.71 468.35 111.33
  Q 472.07 108.91 472.14 103.47
  Q 472.21 97.28 472.26 74.61
  Q 472.28 67.93 470.54 65.09
  Q 468.31 61.45 462.25 61.45
  Q 106.18 61.45 106.00 61.45
  Q 96.51 61.55 96.93 73.96
  Q 97.06 77.75 96.91 98.91
  Q 96.85 106.14 98.12 108.42
  Q 100.49 112.66 106.25 112.67
  Q 161.53 112.71 245.84 112.69
  Q 248.62 112.69 248.67 112.68
  Q 258.95 112.45 258.96 122.24
  Q 259.00 168.01 258.94 222.98
  Q 258.94 223.51 259.47 223.52
  L 318.69 223.59"
/>
<path stroke="#fbe4a0" vector-effect="non-scaling-stroke" d="
  M 318.66 206.57
  L 318.69 223.59"
/>
<path stroke="#ced4dc" vector-effect="non-scaling-stroke" d="
  M 356.21 129.79
  Q 362.02 145.32 374.01 152.01
  Q 376.14 153.20 378.53 153.11"
/>
<path stroke="#bac4d0" vector-effect="non-scaling-stroke" d="
  M 472.20 188.46
  L 472.00 188.10
  Q 471.71 187.57 471.27 187.98
  Q 470.62 188.60 469.70 188.62
  Q 462.36 188.76 455.15 188.66"
/>
<path stroke="#767f8b" vector-effect="non-scaling-stroke" d="
  M 344.27 241.04
  Q 344.27 240.48 343.71 240.48
  L 97.49 240.48
  Q 96.93 240.48 96.93 241.04
  L 96.93 274.28
  Q 96.93 274.84 97.49 274.84
  L 343.71 274.84
  Q 344.27 274.84 344.27 274.28
  L 344.27 241.04"
/>
<path stroke="#9fa2a6" vector-effect="non-scaling-stroke" d="
  M 386.93 241.09
  Q 386.93 240.51 386.35 240.51
  L 361.91 240.51
  Q 361.33 240.51 361.33 241.09
  L 361.33 274.21
  Q 361.33 274.79 361.91 274.79
  L 386.35 274.79
  Q 386.93 274.79 386.93 274.21
  L 386.93 241.09"
/>
<path stroke="#767f8b" vector-effect="non-scaling-stroke" d="
  M 420.99 334.82
  Q 421.01 341.88 421.07 358.28
  Q 421.10 365.46 416.08 367.56
  Q 413.09 368.81 405.18 368.55
  Q 404.67 368.54 404.42 368.53
  Q 403.91 368.51 403.91 369.02
  L 403.91 384.92
  Q 403.91 385.60 404.59 385.60
  L 471.79 385.60
  Q 472.24 385.60 472.24 385.14
  L 472.24 369.16
  Q 472.24 368.58 471.67 368.58
  Q 464.06 368.48 446.77 368.47
  Q 439.06 368.47 438.24 361.15
  Q 437.42 353.82 445.10 351.66
  Q 445.33 351.59 445.57 351.59
  L 454.50 351.31
  Q 455.14 351.29 455.14 350.65
  L 455.14 335.11
  Q 455.14 334.36 454.38 334.36
  L 421.45 334.36
  Q 420.99 334.36 420.99 334.82"
/>
<path stroke="#8c929b" vector-effect="non-scaling-stroke" d="
  M 446.6249 231.9349
  Q 446.63 228.51 444.2129 226.0829
  Q 441.79 223.66 438.3693 223.6504
  L 437.9293 223.6497
  Q 434.50 223.64 432.0773 226.0617
  Q 429.65 228.48 429.6449 231.9052
  L 429.5551 283.3451
  Q 429.55 286.77 431.9671 289.1971
  Q 434.39 291.62 437.8107 291.6296
  L 438.2507 291.6303
  Q 441.68 291.64 444.1027 289.2183
  Q 446.53 286.80 446.5351 283.3748
  L 446.6249 231.9349"
/>
</g>
<path fill="#f7f7f7" d="
  M 612.00 0.00
  L 612.00 480.00
  L 0.00 480.00
  L 0.00 0.00
  L 612.00 0.00
  Z
  M 318.78 391.59
  L 318.99 368.59
  Q 327.21 367.20 327.22 359.00
  Q 327.28 324.77 327.22 292.61
  Q 327.22 291.68 328.15 291.68
  L 343.57 291.68
  Q 344.21 291.68 344.21 292.32
  Q 344.19 300.18 344.39 301.48
  Q 345.36 307.58 351.36 308.61
  Q 357.34 309.63 360.26 304.26
  Q 361.65 301.70 361.32 293.77
  Q 361.28 292.86 361.27 292.46
  Q 361.24 291.69 362.01 291.69
  L 386.14 291.69
  Q 386.81 291.69 386.82 292.37
  Q 386.93 302.13 387.01 308.00
  Q 387.27 325.30 402.98 332.45
  Q 404.00 332.91 404.00 334.03
  L 404.00 350.51
  Q 404.00 351.15 403.37 351.25
  Q 402.16 351.43 399.29 351.42
  Q 393.74 351.42 391.55 352.51
  Q 386.92 354.82 386.93 361.20
  Q 386.96 392.73 386.97 393.18
  Q 387.02 402.54 396.30 402.57
  Q 428.16 402.69 478.76 402.58
  Q 486.00 402.57 488.10 398.14
  Q 489.41 395.37 489.32 387.04
  Q 489.31 386.30 489.31 385.92
  Q 489.27 381.49 489.26 367.15
  Q 489.26 358.17 488.49 356.47
  Q 486.22 351.45 476.96 351.43
  Q 473.97 351.42 472.62 351.23
  Q 472.21 351.17 472.21 350.76
  L 472.21 333.99
  Q 472.21 332.92 473.17 332.47
  Q 484.90 327.00 488.21 316.03
  Q 489.29 312.44 489.27 296.31
  Q 489.19 202.65 489.26 159.68
  Q 489.26 159.40 489.26 158.85
  Q 489.28 145.13 488.22 139.64
  Q 486.58 131.18 480.75 123.93
  Q 480.29 123.35 480.82 122.84
  Q 489.20 114.83 489.23 103.02
  Q 489.31 81.45 489.11 69.58
  Q 488.93 58.53 481.08 51.38
  Q 473.42 44.41 462.25 44.42
  Q 401.52 44.49 132.00 44.43
  Q 108.02 44.43 104.30 44.62
  Q 94.04 45.14 87.13 52.32
  Q 80.28 59.45 79.96 69.75
  Q 79.90 71.72 79.88 100.04
  Q 79.88 112.49 84.63 118.88
  Q 90.24 126.40 98.64 128.79
  Q 102.09 129.77 115.98 129.76
  Q 182.04 129.72 241.04 129.73
  Q 241.94 129.73 241.94 130.63
  L 241.94 222.83
  Q 241.94 223.64 241.13 223.64
  Q 105.29 223.64 103.54 223.59
  Q 93.90 223.34 90.49 224.84
  Q 79.62 229.61 79.92 243.31
  Q 79.97 245.25 79.83 269.16
  Q 79.78 277.18 81.34 281.16
  Q 85.45 291.72 98.75 291.72
  Q 180.76 291.72 241.13 291.69
  Q 241.93 291.69 241.93 292.49
  Q 241.90 408.67 241.95 427.49
  Q 241.98 438.85 249.58 446.32
  Q 257.14 453.75 268.51 453.77
  Q 295.75 453.80 299.75 453.83
  Q 311.29 453.91 318.95 446.92
  Q 326.69 439.85 327.17 428.49
  Q 327.32 424.89 327.21 413.23
  Q 327.13 406.24 331.13 403.60
  Q 332.74 402.53 339.10 402.58
  Q 346.73 402.63 358.15 402.62
  Q 363.36 402.61 365.18 401.70
  Q 368.78 399.90 369.58 395.94
  Q 370.38 392.00 367.87 388.69
  Q 365.58 385.64 359.25 385.61
  Q 338.19 385.53 334.24 385.62
  Q 326.07 385.82 318.78 391.59
  Z"
/>
<path fill="#474c55" d="
  M 318.99 368.59
  Q 310.15 367.87 310.16 358.48
  Q 310.19 294.04 310.17 292.30
  Q 310.16 291.68 309.54 291.68
  L 259.54 291.68
  Q 258.94 291.68 258.94 292.28
  Q 259.00 342.59 258.95 426.50
  Q 258.95 432.47 262.14 434.83
  Q 264.86 436.84 271.00 436.78
  Q 281.61 436.68 300.74 436.70
  Q 306.70 436.71 308.96 432.60
  Q 310.21 430.32 310.18 423.18
  Q 310.18 422.24 309.98 413.00
  Q 309.70 399.83 318.78 391.59
  Q 326.07 385.82 334.24 385.62
  Q 338.19 385.53 359.25 385.61
  Q 365.58 385.64 367.87 388.69
  Q 370.38 392.00 369.58 395.94
  Q 368.78 399.90 365.18 401.70
  Q 363.36 402.61 358.15 402.62
  Q 346.73 402.63 339.10 402.58
  Q 332.74 402.53 331.13 403.60
  Q 327.13 406.24 327.21 413.23
  Q 327.32 424.89 327.17 428.49
  Q 326.69 439.85 318.95 446.92
  Q 311.29 453.91 299.75 453.83
  Q 295.75 453.80 268.51 453.77
  Q 257.14 453.75 249.58 446.32
  Q 241.98 438.85 241.95 427.49
  Q 241.90 408.67 241.93 292.49
  Q 241.93 291.69 241.13 291.69
  Q 180.76 291.72 98.75 291.72
  Q 85.45 291.72 81.34 281.16
  Q 79.78 277.18 79.83 269.16
  Q 79.97 245.25 79.92 243.31
  Q 79.62 229.61 90.49 224.84
  Q 93.90 223.34 103.54 223.59
  Q 105.29 223.64 241.13 223.64
  Q 241.94 223.64 241.94 222.83
  L 241.94 130.63
  Q 241.94 129.73 241.04 129.73
  Q 182.04 129.72 115.98 129.76
  Q 102.09 129.77 98.64 128.79
  Q 90.24 126.40 84.63 118.88
  Q 79.88 112.49 79.88 100.04
  Q 79.90 71.72 79.96 69.75
  Q 80.28 59.45 87.13 52.32
  Q 94.04 45.14 104.30 44.62
  Q 108.02 44.43 132.00 44.43
  Q 401.52 44.49 462.25 44.42
  Q 473.42 44.41 481.08 51.38
  Q 488.93 58.53 489.11 69.58
  Q 489.31 81.45 489.23 103.02
  Q 489.20 114.83 480.82 122.84
  Q 480.29 123.35 480.75 123.93
  Q 486.58 131.18 488.22 139.64
  Q 489.28 145.13 489.26 158.85
  Q 489.26 159.40 489.26 159.68
  Q 489.19 202.65 489.27 296.31
  Q 489.29 312.44 488.21 316.03
  Q 484.90 327.00 473.17 332.47
  Q 472.21 332.92 472.21 333.99
  L 472.21 350.76
  Q 472.21 351.17 472.62 351.23
  Q 473.97 351.42 476.96 351.43
  Q 486.22 351.45 488.49 356.47
  Q 489.26 358.17 489.26 367.15
  Q 489.27 381.49 489.31 385.92
  Q 489.31 386.30 489.32 387.04
  Q 489.41 395.37 488.10 398.14
  Q 486.00 402.57 478.76 402.58
  Q 428.16 402.69 396.30 402.57
  Q 387.02 402.54 386.97 393.18
  Q 386.96 392.73 386.93 361.20
  Q 386.92 354.82 391.55 352.51
  Q 393.74 351.42 399.29 351.42
  Q 402.16 351.43 403.37 351.25
  Q 404.00 351.15 404.00 350.51
  L 404.00 334.03
  Q 404.00 332.91 402.98 332.45
  Q 387.27 325.30 387.01 308.00
  Q 386.93 302.13 386.82 292.37
  Q 386.81 291.69 386.14 291.69
  L 362.01 291.69
  Q 361.24 291.69 361.27 292.46
  Q 361.28 292.86 361.32 293.77
  Q 361.65 301.70 360.26 304.26
  Q 357.34 309.63 351.36 308.61
  Q 345.36 307.58 344.39 301.48
  Q 344.19 300.18 344.21 292.32
  Q 344.21 291.68 343.57 291.68
  L 328.15 291.68
  Q 327.22 291.68 327.22 292.61
  Q 327.28 324.77 327.22 359.00
  Q 327.21 367.20 318.99 368.59
  Z
  M 318.69 223.59
  L 343.62 223.61
  Q 344.19 223.61 344.20 223.03
  Q 344.27 218.12 344.25 215.53
  Q 344.21 210.04 348.61 207.60
  Q 353.01 205.16 357.66 208.11
  Q 361.96 210.83 361.32 221.86
  Q 361.28 222.62 361.26 222.98
  Q 361.22 223.64 361.88 223.64
  L 386.08 223.64
  Q 386.58 223.64 386.66 223.14
  Q 387.08 220.41 386.96 213.78
  Q 386.73 201.74 388.95 196.65
  Q 395.07 182.57 411.97 180.93
  Q 412.50 180.88 412.50 180.34
  L 412.50 164.40
  Q 412.50 163.81 411.92 163.81
  Q 401.88 163.71 392.13 163.90
  Q 384.85 164.05 382.12 162.32
  Q 378.01 159.73 378.53 153.11
  Q 380.94 146.83 386.56 146.80
  Q 415.10 146.68 419.25 146.62
  Q 429.43 146.49 429.50 156.56
  Q 429.62 173.23 429.53 180.19
  Q 429.52 181.03 430.36 181.00
  Q 438.32 180.74 446.74 181.01
  Q 453.98 181.24 455.15 188.66
  Q 454.43 197.92 444.99 197.94
  Q 429.72 197.98 413.75 198.01
  Q 403.92 198.03 403.94 207.78
  Q 404.05 272.74 403.91 304.07
  Q 403.87 311.01 405.14 313.19
  Q 407.52 317.26 413.03 317.30
  Q 421.40 317.37 458.03 317.38
  Q 465.58 317.38 467.86 316.22
  Q 472.12 314.04 472.12 307.75
  Q 472.17 248.10 472.20 188.46
  Q 472.24 170.94 472.22 153.43
  Q 472.22 152.61 472.25 150.84
  Q 472.39 143.32 471.33 140.68
  Q 466.92 129.73 456.00 129.73
  Q 406.54 129.69 360.59 129.67
  Q 358.40 129.67 356.21 129.79
  L 328.14 129.68
  Q 327.25 129.67 327.25 130.57
  Q 327.26 162.40 327.26 193.88
  Q 327.27 199.97 325.90 202.36
  Q 323.80 206.04 318.66 206.57
  Q 310.18 205.56 310.18 197.75
  Q 310.14 162.69 310.19 126.26
  Q 310.20 119.13 311.31 116.90
  Q 313.38 112.70 319.27 112.70
  Q 410.71 112.66 459.55 112.70
  Q 466.25 112.71 468.35 111.33
  Q 472.07 108.91 472.14 103.47
  Q 472.21 97.28 472.26 74.61
  Q 472.28 67.93 470.54 65.09
  Q 468.31 61.45 462.25 61.45
  Q 106.18 61.45 106.00 61.45
  Q 96.51 61.55 96.93 73.96
  Q 97.06 77.75 96.91 98.91
  Q 96.85 106.14 98.12 108.42
  Q 100.49 112.66 106.25 112.67
  Q 161.53 112.71 245.84 112.69
  Q 248.62 112.69 248.67 112.68
  Q 258.95 112.45 258.96 122.24
  Q 259.00 168.01 258.94 222.98
  Q 258.94 223.51 259.47 223.52
  L 318.69 223.59
  Z
  M 344.27 241.04
  Q 344.27 240.48 343.71 240.48
  L 97.49 240.48
  Q 96.93 240.48 96.93 241.04
  L 96.93 274.28
  Q 96.93 274.84 97.49 274.84
  L 343.71 274.84
  Q 344.27 274.84 344.27 274.28
  L 344.27 241.04
  Z
  M 386.93 241.09
  Q 386.93 240.51 386.35 240.51
  L 361.91 240.51
  Q 361.33 240.51 361.33 241.09
  L 361.33 274.21
  Q 361.33 274.79 361.91 274.79
  L 386.35 274.79
  Q 386.93 274.79 386.93 274.21
  L 386.93 241.09
  Z
  M 420.99 334.82
  Q 421.01 341.88 421.07 358.28
  Q 421.10 365.46 416.08 367.56
  Q 413.09 368.81 405.18 368.55
  Q 404.67 368.54 404.42 368.53
  Q 403.91 368.51 403.91 369.02
  L 403.91 384.92
  Q 403.91 385.60 404.59 385.60
  L 471.79 385.60
  Q 472.24 385.60 472.24 385.14
  L 472.24 369.16
  Q 472.24 368.58 471.67 368.58
  Q 464.06 368.48 446.77 368.47
  Q 439.06 368.47 438.24 361.15
  Q 437.42 353.82 445.10 351.66
  Q 445.33 351.59 445.57 351.59
  L 454.50 351.31
  Q 455.14 351.29 455.14 350.65
  L 455.14 335.11
  Q 455.14 334.36 454.38 334.36
  L 421.45 334.36
  Q 420.99 334.36 420.99 334.82
  Z"
/>
<path fill="#fed049" d="
  M 318.66 206.57
  L 318.69 223.59
  L 259.47 223.52
  Q 258.94 223.51 258.94 222.98
  Q 259.00 168.01 258.96 122.24
  Q 258.95 112.45 248.67 112.68
  Q 248.62 112.69 245.84 112.69
  Q 161.53 112.71 106.25 112.67
  Q 100.49 112.66 98.12 108.42
  Q 96.85 106.14 96.91 98.91
  Q 97.06 77.75 96.93 73.96
  Q 96.51 61.55 106.00 61.45
  Q 106.18 61.45 462.25 61.45
  Q 468.31 61.45 470.54 65.09
  Q 472.28 67.93 472.26 74.61
  Q 472.21 97.28 472.14 103.47
  Q 472.07 108.91 468.35 111.33
  Q 466.25 112.71 459.55 112.70
  Q 410.71 112.66 319.27 112.70
  Q 313.38 112.70 311.31 116.90
  Q 310.20 119.13 310.19 126.26
  Q 310.14 162.69 310.18 197.75
  Q 310.18 205.56 318.66 206.57
  Z"
/>
<path fill="#f7f7f7" d="
  M 356.21 129.79
  Q 362.02 145.32 374.01 152.01
  Q 376.14 153.20 378.53 153.11
  Q 378.01 159.73 382.12 162.32
  Q 384.85 164.05 392.13 163.90
  Q 401.88 163.71 411.92 163.81
  Q 412.50 163.81 412.50 164.40
  L 412.50 180.34
  Q 412.50 180.88 411.97 180.93
  Q 395.07 182.57 388.95 196.65
  Q 386.73 201.74 386.96 213.78
  Q 387.08 220.41 386.66 223.14
  Q 386.58 223.64 386.08 223.64
  L 361.88 223.64
  Q 361.22 223.64 361.26 222.98
  Q 361.28 222.62 361.32 221.86
  Q 361.96 210.83 357.66 208.11
  Q 353.01 205.16 348.61 207.60
  Q 344.21 210.04 344.25 215.53
  Q 344.27 218.12 344.20 223.03
  Q 344.19 223.61 343.62 223.61
  L 318.69 223.59
  L 318.66 206.57
  Q 323.80 206.04 325.90 202.36
  Q 327.27 199.97 327.26 193.88
  Q 327.26 162.40 327.25 130.57
  Q 327.25 129.67 328.14 129.68
  L 356.21 129.79
  Z"
/>
<path fill="#a4b1c0" d="
  M 472.20 188.46
  L 472.00 188.10
  Q 471.71 187.57 471.27 187.98
  Q 470.62 188.60 469.70 188.62
  Q 462.36 188.76 455.15 188.66
  Q 453.98 181.24 446.74 181.01
  Q 438.32 180.74 430.36 181.00
  Q 429.52 181.03 429.53 180.19
  Q 429.62 173.23 429.50 156.56
  Q 429.43 146.49 419.25 146.62
  Q 415.10 146.68 386.56 146.80
  Q 380.94 146.83 378.53 153.11
  Q 376.14 153.20 374.01 152.01
  Q 362.02 145.32 356.21 129.79
  Q 358.40 129.67 360.59 129.67
  Q 406.54 129.69 456.00 129.73
  Q 466.92 129.73 471.33 140.68
  Q 472.39 143.32 472.25 150.84
  Q 472.22 152.61 472.22 153.43
  Q 472.24 170.94 472.20 188.46
  Z"
/>
<path fill="#d0d7e0" d="
  M 472.20 188.46
  Q 472.17 248.10 472.12 307.75
  Q 472.12 314.04 467.86 316.22
  Q 465.58 317.38 458.03 317.38
  Q 421.40 317.37 413.03 317.30
  Q 407.52 317.26 405.14 313.19
  Q 403.87 311.01 403.91 304.07
  Q 404.05 272.74 403.94 207.78
  Q 403.92 198.03 413.75 198.01
  Q 429.72 197.98 444.99 197.94
  Q 454.43 197.92 455.15 188.66
  Q 462.36 188.76 469.70 188.62
  Q 470.62 188.60 471.27 187.98
  Q 471.71 187.57 472.00 188.10
  L 472.20 188.46
  Z
  M 446.6249 231.9349
  Q 446.63 228.51 444.2129 226.0829
  Q 441.79 223.66 438.3693 223.6504
  L 437.9293 223.6497
  Q 434.50 223.64 432.0773 226.0617
  Q 429.65 228.48 429.6449 231.9052
  L 429.5551 283.3451
  Q 429.55 286.77 431.9671 289.1971
  Q 434.39 291.62 437.8107 291.6296
  L 438.2507 291.6303
  Q 441.68 291.64 444.1027 289.2183
  Q 446.53 286.80 446.5351 283.3748
  L 446.6249 231.9349
  Z"
/>
<rect fill="#474c55" x="-8.49" y="-33.99" transform="translate(438.09,257.64) rotate(0.1)" width="16.98" height="67.98" rx="8.27"/>
<rect fill="#a4b1c0" x="96.93" y="240.48" width="247.34" height="34.36" rx="0.56"/>
<rect fill="#f7f7f7" x="361.33" y="240.51" width="25.60" height="34.28" rx="0.58"/>
<path fill="#fed049" d="
  M 318.99 368.59
  L 318.78 391.59
  Q 309.70 399.83 309.98 413.00
  Q 310.18 422.24 310.18 423.18
  Q 310.21 430.32 308.96 432.60
  Q 306.70 436.71 300.74 436.70
  Q 281.61 436.68 271.00 436.78
  Q 264.86 436.84 262.14 434.83
  Q 258.95 432.47 258.95 426.50
  Q 259.00 342.59 258.94 292.28
  Q 258.94 291.68 259.54 291.68
  L 309.54 291.68
  Q 310.16 291.68 310.17 292.30
  Q 310.19 294.04 310.16 358.48
  Q 310.15 367.87 318.99 368.59
  Z"
/>
<path fill="#a4b1c0" d="
  M 420.99 334.82
  Q 420.99 334.36 421.45 334.36
  L 454.38 334.36
  Q 455.14 334.36 455.14 335.11
  L 455.14 350.65
  Q 455.14 351.29 454.50 351.31
  L 445.57 351.59
  Q 445.33 351.59 445.10 351.66
  Q 437.42 353.82 438.24 361.15
  Q 439.06 368.47 446.77 368.47
  Q 464.06 368.48 471.67 368.58
  Q 472.24 368.58 472.24 369.16
  L 472.24 385.14
  Q 472.24 385.60 471.79 385.60
  L 404.59 385.60
  Q 403.91 385.60 403.91 384.92
  L 403.91 369.02
  Q 403.91 368.51 404.42 368.53
  Q 404.67 368.54 405.18 368.55
  Q 413.09 368.81 416.08 367.56
  Q 421.10 365.46 421.07 358.28
  Q 421.01 341.88 420.99 334.82
  Z"
/>
</svg>
